<svg id="Capa_1" data-name="Capa 1" xmlns="http://www.w3.org/2000/svg" xmlns:xlink="http://www.w3.org/1999/xlink" viewBox="0 0 612 792"><defs><style>.cls-1{fill:#ffff;}.cls-2{clip-path:url(#clip-path);}.cls-3{fill:#fffff;}</style><clipPath id="clip-path"><rect class="cls-1" width="612" height="792"/></clipPath></defs><title>Mesa de trabajo 1</title><g class="cls-2"><path class="cls-3" d="M93.2,266.19q-7.8,0-12-4.61a16.34,16.34,0,0,1-4.26-11.31,17.4,17.4,0,0,1,1.7-7.9,14.41,14.41,0,0,1,5.53-6,16.62,16.62,0,0,1,9-2.39,15.75,15.75,0,0,1,11.42,4.69l-2.67,2.5a12,12,0,0,0-8.75-3.48q-6,0-9.21,3.65a12.75,12.75,0,0,0-3.19,8.88,13,13,0,0,0,3.26,8.72q3.16,3.56,9.14,3.55a12.07,12.07,0,0,0,8.88-3.61l2.72,2.67a15.8,15.8,0,0,1-11.6,4.64"/><rect class="cls-3" x="122.08" y="234.47" width="3.88" height="31.23"/><polygon class="cls-3" points="142.47 237.96 142.47 234.48 167.64 234.48 167.64 237.96 156.97 237.96 156.97 265.7 153.14 265.7 153.14 237.96 142.47 237.96"/><polygon class="cls-3" points="181.03 234.61 181.03 234.47 185.76 234.47 195.13 249.29 204.72 234.47 209.45 234.47 209.45 234.61 197.14 253.03 197.14 265.7 193.12 265.7 193.12 253.03 181.03 234.61"/><polygon class="cls-3" points="247.43 234.47 269.38 234.47 269.38 238.04 251.27 238.04 251.27 247.81 268.62 247.81 268.62 251.43 251.27 251.43 251.27 262 270.1 262 270.1 265.7 247.43 265.7 247.43 234.47"/><polygon class="cls-3" points="311.19 234.52 311.19 234.65 300.62 249.78 311.82 265.62 311.82 265.7 307.36 265.7 298.12 252.59 288.89 265.7 284.43 265.7 284.43 265.62 295.62 249.78 285.05 234.65 285.05 234.52 289.56 234.52 298.12 247.14 306.78 234.52 311.19 234.52"/><path class="cls-3" d="M331.91,265.7h-3.84V234.48h14.18a11.54,11.54,0,0,1,5.27,1.16,8.58,8.58,0,0,1,3.52,3,13.35,13.35,0,0,1,1.76,4.13,9,9,0,0,1,0,4.5,13.08,13.08,0,0,1-1.76,4.1,8.82,8.82,0,0,1-3.52,3,11.42,11.42,0,0,1-5.27,1.18H331.91ZM346.07,251a5.92,5.92,0,0,0,2.34-2.59,8.13,8.13,0,0,0,0-6.69,6,6,0,0,0-2.34-2.59,7.06,7.06,0,0,0-3.82-1H331.91V252h10.34a7,7,0,0,0,3.82-1"/><path class="cls-3" d="M381.66,254.46h-7.59V265.7h-3.88V234.48h14.19a10.23,10.23,0,0,1,7.79,2.94,10.65,10.65,0,0,1,.6,13.63q-2.24,2.74-6.78,3.1l10.3,11.55h-4.9Zm7.65-5.29a6.3,6.3,0,0,0,1.76-4.61,6.54,6.54,0,0,0-1.74-4.6,6.28,6.28,0,0,0-4.95-2H374.07v13H384.2a6.79,6.79,0,0,0,5.11-1.81"/><polygon class="cls-3" points="413.57 234.47 435.52 234.47 435.52 238.04 417.41 238.04 417.41 247.81 434.76 247.81 434.76 251.43 417.41 251.43 417.41 262 436.23 262 436.23 265.7 413.57 265.7 413.57 234.47"/><path class="cls-3" d="M469.88,238.33a13.86,13.86,0,0,0-5.17-1,11.63,11.63,0,0,0-5.78,1.36,4.32,4.32,0,0,0-2.43,4,3.63,3.63,0,0,0,.62,2.1,4.63,4.63,0,0,0,1.92,1.47,16.18,16.18,0,0,0,2.61.91c.88.23,2,.44,3.32.65,1.55.24,2.8.46,3.75.67a24.78,24.78,0,0,1,3.28,1,9.4,9.4,0,0,1,2.88,1.59,7.33,7.33,0,0,1,1.76,2.43,9,9,0,0,1-.4,8,7.84,7.84,0,0,1-3,2.9,15.66,15.66,0,0,1-4,1.52,20.57,20.57,0,0,1-4.51.49,17.67,17.67,0,0,1-8-1.76,11.08,11.08,0,0,1-5.22-5.47l3.21-1.87a9.69,9.69,0,0,0,4.22,4.06,12.61,12.61,0,0,0,5.82,1.43,16.44,16.44,0,0,0,3-.27,12,12,0,0,0,2.81-.9,5.2,5.2,0,0,0,2.18-1.8,4.82,4.82,0,0,0,.83-2.83,4.19,4.19,0,0,0-.69-2.41,4.76,4.76,0,0,0-2.07-1.65,17.25,17.25,0,0,0-2.79-1c-.94-.23-2.09-.46-3.46-.66s-2.63-.43-3.59-.65a25.26,25.26,0,0,1-3.15-1,9.25,9.25,0,0,1-2.72-1.52,7.13,7.13,0,0,1-1.72-2.28,8.2,8.2,0,0,1,.36-7.31,7.56,7.56,0,0,1,2.9-2.74,15.23,15.23,0,0,1,3.84-1.46,20.14,20.14,0,0,1,11.13.74,10.13,10.13,0,0,1,4.86,4.46l-2.94,1.83a7.47,7.47,0,0,0-3.62-3"/><path class="cls-3" d="M511.12,238.33a13.91,13.91,0,0,0-5.18-1,11.63,11.63,0,0,0-5.78,1.36,4.32,4.32,0,0,0-2.43,4,3.57,3.57,0,0,0,.63,2.1,4.53,4.53,0,0,0,1.91,1.47,16.63,16.63,0,0,0,2.62.91c.87.23,2,.44,3.32.65,1.55.24,2.79.46,3.75.67a25.24,25.24,0,0,1,3.28,1,9.22,9.22,0,0,1,2.87,1.59,7.2,7.2,0,0,1,1.76,2.43,8.08,8.08,0,0,1,.74,3.59,8.23,8.23,0,0,1-1.14,4.37,7.88,7.88,0,0,1-3,2.9,15.73,15.73,0,0,1-4,1.52,20.55,20.55,0,0,1-4.5.49,17.68,17.68,0,0,1-8-1.76,11.08,11.08,0,0,1-5.22-5.47l3.21-1.87a9.69,9.69,0,0,0,4.22,4.06,12.64,12.64,0,0,0,5.82,1.43,16.36,16.36,0,0,0,3-.27,11.66,11.66,0,0,0,2.81-.9,5.23,5.23,0,0,0,2.19-1.8,4.82,4.82,0,0,0,.82-2.83,4.12,4.12,0,0,0-.69-2.41,4.7,4.7,0,0,0-2.07-1.65,16.92,16.92,0,0,0-2.79-1c-.94-.23-2.09-.46-3.46-.66s-2.62-.43-3.59-.65a25.15,25.15,0,0,1-3.14-1,9.44,9.44,0,0,1-2.73-1.52,7,7,0,0,1-1.71-2.28,8.2,8.2,0,0,1,.36-7.31,7.53,7.53,0,0,1,2.89-2.74,15.37,15.37,0,0,1,3.84-1.46,18.57,18.57,0,0,1,4.17-.46,18.36,18.36,0,0,1,7,1.2,10.13,10.13,0,0,1,4.86,4.46l-2.94,1.83a7.45,7.45,0,0,0-3.61-3"/><path class="cls-3" d="M378,302.68h-8.83v9.19h-5.89V280.64c4.91,0,9.82,0,14.72,0,15.26,0,15.31,22.08,0,22.08m-8.83-5.4H378c7.55,0,7.5-11.06,0-11.06h-8.83Z"/><polygon class="cls-3" points="413.66 280.64 413.66 306.43 429.72 306.43 429.72 311.87 407.77 311.87 407.77 280.64 413.66 280.64"/><path class="cls-3" d="M473.72,280.69v17.89c0,9.23-5.67,14-13.52,14-7.49,0-13.87-4.55-13.87-14V280.69h5.84v17.89c0,5.62,3.21,8.61,8.08,8.61s7.63-3.26,7.63-8.61V280.69Z"/><path class="cls-3" d="M513,288.18c-1.07-1.78-4-3.48-7.41-3.48-4.37,0-6.47,1.83-6.47,4.15,0,2.72,3.21,3.48,7,3.93,6.51.8,12.58,2.5,12.58,10,0,6.95-6.15,9.94-13.11,9.94-6.38,0-11.29-2-13.61-7.67l4.91-2.54c1.38,3.43,5,5,8.78,5s7.19-1.29,7.19-4.68c0-3-3.08-4.15-7.23-4.6-6.38-.76-12.27-2.45-12.27-9.46,0-6.42,6.33-9.05,12.09-9.1,4.86,0,9.9,1.38,12.27,6.2Z"/><path class="cls-3" d="M528.61,302.8a4.84,4.84,0,0,1,2.3.6,4.25,4.25,0,0,1,1.72,1.72,4.62,4.62,0,0,1,0,4.64,4.2,4.2,0,0,1-1.7,1.72,4.68,4.68,0,0,1-2.33.62,4.52,4.52,0,0,1-2.3-.62,4.43,4.43,0,0,1-1.74-1.72,4.68,4.68,0,0,1,0-4.64,4.39,4.39,0,0,1,1.75-1.72,4.74,4.74,0,0,1,2.28-.6m0,.78a3.84,3.84,0,0,0-1.91.5,3.63,3.63,0,0,0-1.45,1.43,4,4,0,0,0-.52,1.95,3.91,3.91,0,0,0,.52,1.93,3.48,3.48,0,0,0,1.45,1.42,3.76,3.76,0,0,0,1.91.52,3.81,3.81,0,0,0,1.93-.52,3.52,3.52,0,0,0,1.44-1.42,4,4,0,0,0,.5-1.93,3.92,3.92,0,0,0-.51-1.95,3.5,3.5,0,0,0-1.45-1.43,3.74,3.74,0,0,0-1.91-.5m-2,6.44v-5h1.72a4,4,0,0,1,1.27.14,1.27,1.27,0,0,1,.64.48,1.43,1.43,0,0,1,.23.74,1.33,1.33,0,0,1-.39.95,1.61,1.61,0,0,1-1,.45,1.39,1.39,0,0,1,.43.28,5,5,0,0,1,.74,1l.61,1h-1l-.42-.79a4.46,4.46,0,0,0-.85-1.15.92.92,0,0,0-.65-.18h-.48V310Zm.8-2.81h1a1.43,1.43,0,0,0,.94-.22.62.62,0,0,0,.27-.55.79.79,0,0,0-.11-.39.77.77,0,0,0-.35-.26,2.25,2.25,0,0,0-.8-.1h-.93Z"/></g></svg>