<?xml version="1.0" encoding="utf-8"?>
<!-- Generator: Adobe Illustrator 24.2.3, SVG Export Plug-In . SVG Version: 6.00 Build 0)  -->
<svg version="1.1" id="Layer_1" xmlns="http://www.w3.org/2000/svg" xmlns:xlink="http://www.w3.org/1999/xlink" x="0px" y="0px"
	 viewBox="0 0 612 792" style="enable-background:new 0 0 612 792;" xml:space="preserve">
<style type="text/css">
	.st0{fill:#FFFFFF;}
</style>
<rect width="612.52" height="792.28"/>
<g>
	<path class="st0" d="M93.2,266.19c-5.2,0-9.21-1.54-12.02-4.62c-2.81-3.08-4.23-6.85-4.26-11.31c-0.03-2.85,0.53-5.49,1.7-7.9
		c1.16-2.41,3-4.41,5.53-6c2.53-1.59,5.55-2.39,9.06-2.39c4.43,0,8.24,1.56,11.42,4.68l-2.68,2.5c-2.35-2.32-5.26-3.48-8.74-3.48
		c-3.98,0-7.06,1.22-9.21,3.66c-2.16,2.44-3.22,5.4-3.19,8.88c0.06,3.45,1.14,6.36,3.26,8.72c2.11,2.36,5.16,3.55,9.15,3.55
		c3.51,0,6.47-1.21,8.88-3.61l2.72,2.68C101.68,264.65,97.81,266.19,93.2,266.19"/>
	<rect x="122.08" y="234.47" class="st0" width="3.88" height="31.23"/>
	<polygon class="st0" points="142.47,237.95 142.47,234.48 167.64,234.48 167.64,237.95 156.97,237.95 156.97,265.7 153.14,265.7 
		153.14,237.95 	"/>
	<polygon class="st0" points="181.03,234.61 181.03,234.47 185.76,234.47 195.13,249.29 204.72,234.47 209.45,234.47 209.45,234.61 
		197.14,253.03 197.14,265.7 193.12,265.7 193.12,253.03 	"/>
	<polygon class="st0" points="247.43,234.47 269.38,234.47 269.38,238.04 251.27,238.04 251.27,247.81 268.62,247.81 268.62,251.43 
		251.27,251.43 251.27,262 270.1,262 270.1,265.7 247.43,265.7 	"/>
	<polygon class="st0" points="311.19,234.52 311.19,234.65 300.62,249.78 311.82,265.61 311.82,265.7 307.36,265.7 298.12,252.59 
		288.89,265.7 284.43,265.7 284.43,265.61 295.62,249.78 285.05,234.65 285.05,234.52 289.56,234.52 298.12,247.14 306.78,234.52 	
		"/>
	<path class="st0" d="M331.91,265.7h-3.84v-31.23h14.19c1.96,0,3.72,0.39,5.27,1.16c1.55,0.77,2.72,1.78,3.52,3.03
		c0.8,1.25,1.39,2.62,1.76,4.13c0.37,1.5,0.37,3,0,4.51c-0.37,1.5-0.96,2.87-1.76,4.1c-0.8,1.24-1.98,2.25-3.52,3.03
		c-1.55,0.79-3.3,1.18-5.27,1.18h-10.35V265.7z M346.07,250.98c1.09-0.68,1.87-1.55,2.34-2.59c0.48-1.04,0.71-2.16,0.71-3.35
		c0-1.19-0.24-2.31-0.71-3.35c-0.48-1.04-1.26-1.9-2.34-2.59c-1.08-0.69-2.36-1.03-3.81-1.03h-10.35v13.92h10.35
		C343.71,252.01,344.98,251.67,346.07,250.98"/>
	<path class="st0" d="M381.66,254.46h-7.59v11.24h-3.88v-31.23h14.19c3.33,0,5.93,0.98,7.79,2.94c1.86,1.96,2.79,4.31,2.79,7.05
		c0.03,2.56-0.7,4.75-2.18,6.58c-1.49,1.83-3.75,2.86-6.78,3.1l10.31,11.55h-4.91L381.66,254.46z M389.31,249.17
		c1.17-1.2,1.76-2.74,1.76-4.62c0.03-1.72-0.55-3.26-1.74-4.6c-1.19-1.34-2.84-2.01-4.95-2.01h-10.3v13.03h10.13
		C386.43,250.98,388.14,250.38,389.31,249.17"/>
	<polygon class="st0" points="413.57,234.47 435.52,234.47 435.52,238.04 417.41,238.04 417.41,247.81 434.76,247.81 434.76,251.43 
		417.41,251.43 417.41,262 436.23,262 436.23,265.7 413.57,265.7 	"/>
	<path class="st0" d="M469.88,238.33c-1.61-0.67-3.33-1.02-5.17-1.05c-2.23,0-4.16,0.45-5.78,1.36c-1.62,0.91-2.43,2.24-2.43,3.99
		c0,0.8,0.21,1.5,0.62,2.1c0.42,0.59,1.06,1.09,1.92,1.47c0.86,0.39,1.73,0.69,2.61,0.91c0.88,0.22,1.98,0.44,3.32,0.65
		c1.55,0.24,2.8,0.46,3.75,0.67c0.95,0.21,2.05,0.54,3.28,1c1.23,0.46,2.19,0.99,2.88,1.58c0.68,0.6,1.27,1.41,1.76,2.43
		c0.49,1.03,0.74,2.22,0.74,3.59c0,1.67-0.38,3.12-1.14,4.37c-0.76,1.25-1.77,2.22-3.03,2.9c-1.26,0.68-2.61,1.19-4.04,1.52
		c-1.43,0.33-2.93,0.49-4.51,0.49c-2.97,0-5.63-0.59-7.99-1.76c-2.35-1.17-4.09-3-5.22-5.46l3.21-1.87
		c0.95,1.76,2.36,3.11,4.22,4.06c1.86,0.95,3.8,1.43,5.82,1.43c1.04,0,2.05-0.09,3.01-0.27c0.97-0.18,1.9-0.48,2.81-0.89
		c0.91-0.42,1.64-1.02,2.19-1.81c0.55-0.79,0.82-1.73,0.82-2.83c0-0.92-0.23-1.73-0.69-2.41c-0.46-0.68-1.15-1.23-2.07-1.65
		c-0.92-0.42-1.85-0.74-2.79-0.98c-0.94-0.24-2.09-0.46-3.46-0.67c-1.43-0.21-2.63-0.43-3.59-0.65c-0.97-0.22-2.01-0.55-3.14-0.98
		c-1.13-0.43-2.04-0.94-2.72-1.52c-0.68-0.58-1.26-1.34-1.72-2.27c-0.46-0.94-0.69-2.02-0.69-3.23c-0.03-1.55,0.32-2.91,1.05-4.08
		c0.73-1.17,1.69-2.09,2.9-2.74c1.21-0.66,2.48-1.14,3.84-1.45c1.35-0.31,2.74-0.47,4.17-0.47c2.68,0,5,0.4,6.96,1.2
		c1.96,0.8,3.58,2.29,4.86,4.46l-2.94,1.83C472.69,239.99,471.49,239,469.88,238.33"/>
	<path class="st0" d="M511.12,238.33c-1.61-0.67-3.33-1.02-5.17-1.05c-2.23,0-4.16,0.45-5.78,1.36c-1.62,0.91-2.43,2.24-2.43,3.99
		c0,0.8,0.21,1.5,0.63,2.1c0.42,0.59,1.05,1.09,1.92,1.47c0.86,0.39,1.74,0.69,2.61,0.91c0.88,0.22,1.98,0.44,3.32,0.65
		c1.55,0.24,2.8,0.46,3.75,0.67c0.95,0.21,2.04,0.54,3.28,1c1.24,0.46,2.19,0.99,2.88,1.58c0.68,0.6,1.27,1.41,1.76,2.43
		c0.49,1.03,0.74,2.22,0.74,3.59c0,1.67-0.38,3.12-1.14,4.37c-0.76,1.25-1.77,2.22-3.03,2.9c-1.26,0.68-2.61,1.19-4.04,1.52
		c-1.43,0.33-2.93,0.49-4.51,0.49c-2.97,0-5.63-0.59-7.99-1.76c-2.35-1.17-4.09-3-5.22-5.46l3.21-1.87
		c0.95,1.76,2.36,3.11,4.22,4.06c1.86,0.95,3.8,1.43,5.82,1.43c1.04,0,2.05-0.09,3.01-0.27c0.97-0.18,1.9-0.48,2.81-0.89
		c0.91-0.42,1.64-1.02,2.19-1.81c0.55-0.79,0.82-1.73,0.82-2.83c0-0.92-0.23-1.73-0.69-2.41c-0.46-0.68-1.15-1.23-2.07-1.65
		c-0.92-0.42-1.85-0.74-2.79-0.98c-0.94-0.24-2.09-0.46-3.46-0.67c-1.43-0.21-2.63-0.43-3.59-0.65c-0.97-0.22-2.02-0.55-3.14-0.98
		c-1.13-0.43-2.04-0.94-2.72-1.52c-0.68-0.58-1.26-1.34-1.72-2.27c-0.46-0.94-0.69-2.02-0.69-3.23c-0.03-1.55,0.32-2.91,1.05-4.08
		c0.73-1.17,1.69-2.09,2.9-2.74c1.21-0.66,2.48-1.14,3.84-1.45c1.35-0.31,2.74-0.47,4.17-0.47c2.68,0,5,0.4,6.96,1.2
		c1.96,0.8,3.58,2.29,4.86,4.46l-2.94,1.83C513.93,239.99,512.72,239,511.12,238.33"/>
	<path class="st0" d="M378.04,302.68h-8.83v9.19h-5.89v-31.23c4.91,0,9.82-0.04,14.72-0.04C393.3,280.6,393.35,302.68,378.04,302.68
		 M369.21,297.28h8.83c7.54,0,7.5-11.06,0-11.06h-8.83V297.28z"/>
	<polygon class="st0" points="413.66,280.64 413.66,306.43 429.72,306.43 429.72,311.87 407.77,311.87 407.77,280.64 	"/>
	<path class="st0" d="M473.72,280.69v17.89c0,9.23-5.67,13.96-13.52,13.96c-7.49,0-13.87-4.55-13.87-13.96v-17.89h5.85v17.89
		c0,5.62,3.21,8.61,8.08,8.61c4.86,0,7.63-3.26,7.63-8.61v-17.89H473.72z"/>
	<path class="st0" d="M513.04,288.18c-1.07-1.78-4.02-3.48-7.41-3.48c-4.37,0-6.47,1.83-6.47,4.15c0,2.72,3.21,3.48,6.96,3.93
		c6.51,0.8,12.58,2.5,12.58,9.95c0,6.96-6.16,9.95-13.12,9.95c-6.38,0-11.29-1.96-13.61-7.67l4.91-2.54c1.38,3.44,5,4.95,8.79,4.95
		c3.7,0,7.18-1.29,7.18-4.68c0-2.94-3.08-4.15-7.23-4.6c-6.38-0.76-12.27-2.45-12.27-9.46c0-6.42,6.33-9.06,12.09-9.1
		c4.86,0,9.9,1.38,12.27,6.2L513.04,288.18z"/>
	<path class="st0" d="M528.61,302.8c0.77,0,1.54,0.2,2.3,0.6c0.72,0.4,1.31,0.97,1.72,1.72c0.43,0.74,0.63,1.52,0.63,2.34
		c0,0.8-0.2,1.57-0.62,2.3c-0.4,0.74-0.98,1.32-1.7,1.73c-0.75,0.42-1.52,0.62-2.33,0.62c-0.8,0-1.58-0.2-2.3-0.62
		c-0.74-0.41-1.31-0.98-1.74-1.73c-0.41-0.73-0.61-1.5-0.61-2.3c0-0.81,0.2-1.6,0.62-2.34c0.43-0.75,1.01-1.32,1.75-1.72
		C527.07,303,527.83,302.8,528.61,302.8 M528.61,303.58c-0.65,0-1.3,0.15-1.92,0.5c-0.61,0.34-1.09,0.8-1.44,1.44
		c-0.34,0.61-0.52,1.28-0.52,1.94c0,0.67,0.17,1.31,0.52,1.93c0.34,0.61,0.82,1.1,1.45,1.42c0.61,0.35,1.24,0.52,1.92,0.52
		c0.66,0,1.32-0.17,1.93-0.52c0.62-0.32,1.09-0.81,1.43-1.42c0.35-0.62,0.51-1.26,0.51-1.93c0-0.66-0.16-1.33-0.51-1.94
		c-0.36-0.64-0.82-1.1-1.45-1.44C529.91,303.73,529.28,303.58,528.61,303.58 M526.58,310.02v-5h1.72c0.58,0,1,0.04,1.27,0.14
		c0.25,0.09,0.48,0.24,0.64,0.47c0.14,0.23,0.23,0.49,0.23,0.75c0,0.36-0.13,0.68-0.39,0.94c-0.28,0.27-0.62,0.43-1.05,0.45
		c0.17,0.08,0.31,0.17,0.44,0.29c0.21,0.19,0.45,0.51,0.74,0.97l0.6,0.99h-1l-0.43-0.79c-0.36-0.62-0.64-0.99-0.85-1.15
		c-0.14-0.14-0.37-0.18-0.65-0.18h-0.48v2.12H526.58z M527.38,307.21h0.99c0.46,0,0.78-0.07,0.94-0.22
		c0.18-0.13,0.27-0.32,0.27-0.55c0-0.13-0.05-0.27-0.11-0.39c-0.09-0.11-0.2-0.21-0.35-0.26c-0.14-0.06-0.41-0.1-0.8-0.1h-0.94
		V307.21z"/>
</g>
<g>
	<path class="st0" d="M335.83,536.02c-3.65-1.1-6.55-2.56-8.68-4.39l3.23-7.34c2.09,1.64,4.64,2.97,7.67,3.99
		c3.02,1.03,6.06,1.53,9.1,1.52c3.77-0.01,6.58-0.63,8.44-1.85c1.85-1.22,2.78-2.81,2.77-4.8c-0.01-1.45-0.53-2.64-1.57-3.58
		c-1.04-0.94-2.36-1.67-3.96-2.2c-1.6-0.52-3.77-1.12-6.53-1.78c-3.87-0.9-7-1.81-9.4-2.72c-2.4-0.91-4.46-2.34-6.18-4.29
		c-1.72-1.95-2.59-4.59-2.61-7.93c-0.01-2.8,0.74-5.36,2.25-7.66c1.51-2.3,3.8-4.14,6.87-5.5c3.06-1.37,6.82-2.06,11.26-2.08
		c3.09-0.01,6.14,0.36,9.14,1.12c3,0.76,5.59,1.86,7.77,3.3l-2.94,7.33c-2.23-1.3-4.55-2.28-6.97-2.94c-2.42-0.67-4.76-1-7.04-0.99
		c-3.72,0.01-6.49,0.65-8.29,1.92c-1.81,1.27-2.71,2.94-2.7,5.01c0.01,1.45,0.53,2.63,1.57,3.55c1.04,0.91,2.36,1.63,3.96,2.16
		s3.77,1.12,6.53,1.78c3.77,0.86,6.87,1.75,9.29,2.68c2.42,0.93,4.49,2.36,6.22,4.29c1.72,1.93,2.59,4.53,2.61,7.82
		c0.01,2.8-0.74,5.34-2.25,7.62c-1.51,2.28-3.81,4.1-6.9,5.47c-3.09,1.36-6.86,2.06-11.3,2.08
		C343.27,537.65,339.49,537.11,335.83,536.02"/>
	<path class="st0" d="M405.83,501.23l0.14,35.51l-7.91,0.03l-0.02-4.52c-1.32,1.6-2.98,2.84-4.97,3.71
		c-1.99,0.87-4.14,1.31-6.45,1.32c-4.74,0.02-8.48-1.29-11.22-3.91c-2.74-2.63-4.12-6.53-4.14-11.72l-0.08-20.28l8.31-0.03
		l0.08,19.15c0.01,3.19,0.74,5.57,2.19,7.14c1.45,1.57,3.5,2.35,6.16,2.34c2.97-0.01,5.33-0.94,7.07-2.79
		c1.74-1.85,2.61-4.5,2.59-7.96l-0.07-17.95L405.83,501.23z"/>
	
		<rect x="411.31" y="501.19" transform="matrix(1 -4.044930e-03 4.044930e-03 1 -2.0957 1.6848)" class="st0" width="8.31" height="35.51"/>
	<path class="st0" d="M486.58,521.32l-27.86,0.11c0.5,2.61,1.78,4.68,3.85,6.2c2.07,1.52,4.63,2.28,7.69,2.26
		c3.9-0.02,7.11-1.31,9.63-3.9l4.48,5.1c-1.59,1.91-3.6,3.36-6.03,4.35c-2.43,0.99-5.18,1.48-8.24,1.5
		c-3.9,0.02-7.34-0.75-10.32-2.29c-2.98-1.54-5.28-3.69-6.91-6.46c-1.63-2.76-2.45-5.9-2.46-9.4c-0.01-3.46,0.76-6.58,2.32-9.35
		c1.56-2.78,3.74-4.95,6.52-6.51c2.79-1.56,5.93-2.35,9.43-2.37c3.46-0.01,6.55,0.74,9.29,2.26c2.73,1.52,4.87,3.66,6.41,6.42
		c1.54,2.77,2.32,5.96,2.33,9.6C486.7,519.43,486.66,520.25,486.58,521.32 M461.96,509.61c-1.83,1.58-2.94,3.68-3.33,6.3l20.15-0.08
		c-0.37-2.57-1.46-4.65-3.28-6.24c-1.82-1.59-4.09-2.38-6.79-2.37C466.04,507.23,463.79,508.03,461.96,509.61"/>
	
		<rect x="410.29" y="489.5" transform="matrix(1 -3.991412e-03 3.991412e-03 1 -1.9669 1.658)" class="st0" width="8.22" height="8.22"/>
	<path class="st0" d="M435.64,508.17l12.64-0.05c1.45-2.64,3.41-4.96,5.76-6.83l-18.43,0.07L435.64,508.17z"/>
	<path class="st0" d="M433.16,508.19l0.07,16.74c0.01,1.73,0.43,3.05,1.28,3.95c0.85,0.91,2.07,1.35,3.66,1.35
		c1.86-0.01,3.41-0.5,4.65-1.48l2.35,5.91c-0.97,0.8-2.16,1.4-3.55,1.81c-1.39,0.4-2.87,0.61-4.42,0.62
		c-3.9,0.02-6.92-0.99-9.06-3.02c-2.14-2.03-3.21-5-3.23-8.9l-0.07-17.09l-0.03-6.65l-0.03-8.11l8.31-0.03l0.03,8.11L433.16,508.19z
		"/>
	<path class="st0" d="M496.23,535.67c-2.79-0.74-5.03-1.71-6.72-2.91l2.94-6.14c1.62,1.1,3.55,1.98,5.77,2.64
		c2.23,0.66,4.46,0.99,6.68,0.98c2.48-0.01,4.31-0.36,5.49-1.05c1.18-0.69,1.77-1.61,1.77-2.74c0-0.84-0.36-1.53-1.06-2.08
		c-0.7-0.55-1.6-0.99-2.7-1.32c-1.1-0.33-2.58-0.69-4.45-1.09c-2.88-0.62-5.23-1.25-7.06-1.88c-1.83-0.63-3.41-1.64-4.72-3.05
		c-1.32-1.4-1.98-3.27-1.99-5.62c-0.01-2.04,0.58-3.9,1.75-5.56c1.18-1.66,2.96-2.98,5.34-3.97c2.38-0.98,5.3-1.48,8.75-1.49
		c2.41-0.01,4.76,0.25,7.06,0.77c2.3,0.53,4.31,1.29,6.04,2.29l-2.67,6.19c-3.49-1.83-6.98-2.74-10.46-2.72
		c-2.44,0.01-4.24,0.39-5.41,1.13c-1.16,0.74-1.74,1.72-1.74,2.92c0.01,1.21,0.68,2.1,2.03,2.68c1.35,0.58,3.41,1.15,6.17,1.71
		c2.88,0.62,5.23,1.25,7.06,1.88c1.83,0.63,3.41,1.63,4.73,3c1.32,1.37,1.98,3.22,1.99,5.57c0.01,2.01-0.59,3.85-1.78,5.51
		c-1.2,1.66-3,2.98-5.4,3.96c-2.4,0.98-5.33,1.48-8.77,1.49C501.89,536.77,499.01,536.41,496.23,535.67"/>
	<path class="st0" d="M530.17,527.61c0.77,0,1.53,0.19,2.28,0.59c0.72,0.39,1.3,0.96,1.71,1.7c0.44,0.73,0.63,1.51,0.64,2.32
		c0,0.79-0.19,1.56-0.61,2.29c-0.4,0.74-0.96,1.31-1.68,1.72c-0.74,0.42-1.51,0.61-2.31,0.62c-0.79,0-1.57-0.19-2.29-0.6
		c-0.74-0.41-1.3-0.97-1.73-1.71c-0.41-0.73-0.61-1.49-0.62-2.28c0-0.81,0.2-1.58,0.61-2.32c0.42-0.74,1-1.32,1.72-1.71
		C528.64,527.81,529.4,527.61,530.17,527.61 M530.17,528.38c-0.64,0-1.29,0.16-1.9,0.5c-0.6,0.34-1.07,0.8-1.43,1.43
		c-0.33,0.61-0.51,1.27-0.51,1.93c0,0.66,0.18,1.29,0.52,1.91c0.35,0.61,0.82,1.09,1.44,1.41c0.61,0.35,1.24,0.51,1.9,0.51
		c0.66,0,1.31-0.17,1.91-0.52c0.61-0.32,1.08-0.81,1.41-1.42c0.34-0.62,0.5-1.25,0.49-1.91c0-0.66-0.16-1.32-0.52-1.92
		c-0.36-0.63-0.82-1.08-1.44-1.42C531.46,528.53,530.83,528.38,530.17,528.38 M528.18,534.78l-0.02-4.96l1.71-0.01
		c0.58,0,1,0.04,1.27,0.14c0.25,0.09,0.48,0.24,0.63,0.47c0.14,0.23,0.23,0.48,0.23,0.74c0,0.36-0.13,0.67-0.38,0.94
		c-0.28,0.27-0.61,0.42-1.05,0.45c0.17,0.07,0.3,0.17,0.43,0.28c0.21,0.18,0.45,0.51,0.74,0.96l0.6,0.98l-0.98,0l-0.43-0.78
		c-0.36-0.61-0.64-0.98-0.85-1.14c-0.14-0.14-0.37-0.17-0.65-0.17l-0.48,0l0.01,2.1L528.18,534.78z M528.96,531.99l0.98,0
		c0.46,0,0.77-0.07,0.93-0.22c0.18-0.14,0.27-0.32,0.27-0.54c0-0.13-0.05-0.27-0.11-0.39c-0.09-0.11-0.2-0.2-0.35-0.26
		c-0.14-0.06-0.4-0.09-0.79-0.09l-0.93,0L528.96,531.99z"/>
	<path class="st0" d="M92.88,469.78c-5.24,0-9.27-1.55-12.1-4.65c-2.83-3.1-4.26-6.89-4.29-11.38c-0.03-2.87,0.54-5.52,1.7-7.94
		c1.17-2.42,3.02-4.44,5.57-6.03c2.54-1.6,5.58-2.4,9.11-2.4c4.46,0,8.29,1.57,11.49,4.71l-2.69,2.51c-2.36-2.33-5.29-3.5-8.79-3.5
		c-4.01,0-7.1,1.23-9.27,3.68c-2.17,2.45-3.24,5.43-3.21,8.93c0.06,3.47,1.15,6.4,3.28,8.77c2.12,2.38,5.19,3.57,9.2,3.57
		c3.53,0,6.51-1.21,8.93-3.64l2.74,2.69C101.4,468.22,97.51,469.78,92.88,469.78"/>
	<rect x="121.93" y="437.87" class="st0" width="3.91" height="31.42"/>
	<polygon class="st0" points="142.44,441.37 142.44,437.87 167.76,437.87 167.76,441.37 157.03,441.37 157.03,469.29 153.17,469.29 
		153.17,441.37 	"/>
	<polygon class="st0" points="181.23,438 181.23,437.87 185.99,437.87 195.42,452.77 205.07,437.87 209.82,437.87 209.82,438 
		197.43,456.54 197.43,469.29 193.39,469.29 193.39,456.54 	"/>
	<polygon class="st0" points="248.03,437.87 270.12,437.87 270.12,441.46 251.89,441.46 251.89,451.29 269.35,451.29 269.35,454.92 
		251.89,454.92 251.89,465.56 270.83,465.56 270.83,469.28 248.03,469.28 	"/>
	<polygon class="st0" points="312.18,437.91 312.18,438.05 301.54,453.26 312.81,469.2 312.81,469.29 308.32,469.29 299.03,456.09 
		289.74,469.29 285.25,469.29 285.25,469.2 296.52,453.26 285.88,438.05 285.88,437.91 290.41,437.91 299.03,450.61 307.74,437.91 	
		"/>
	<path class="st0" d="M333.02,469.29h-3.86v-31.42h14.27c1.98,0,3.74,0.39,5.3,1.17c1.55,0.78,2.74,1.79,3.54,3.05
		c0.81,1.26,1.4,2.64,1.77,4.15c0.37,1.51,0.37,3.02,0,4.53c-0.37,1.51-0.96,2.89-1.77,4.13c-0.81,1.24-1.99,2.26-3.54,3.05
		c-1.56,0.79-3.32,1.19-5.3,1.19h-10.41V469.29z M347.27,454.47c1.09-0.69,1.88-1.56,2.36-2.6c0.48-1.05,0.72-2.17,0.72-3.37
		c0-1.2-0.24-2.32-0.72-3.37c-0.48-1.05-1.26-1.92-2.36-2.6c-1.09-0.69-2.37-1.03-3.84-1.03h-10.41v14h10.41
		C344.9,455.51,346.17,455.16,347.27,454.47"/>
	<path class="st0" d="M383.07,457.98h-7.63v11.31h-3.91v-31.42h14.27c3.35,0,5.96,0.99,7.83,2.96c1.87,1.98,2.81,4.34,2.81,7.09
		c0.03,2.57-0.7,4.78-2.2,6.62c-1.5,1.84-3.77,2.88-6.82,3.12l10.37,11.63h-4.94L383.07,457.98z M390.77,452.66
		c1.18-1.21,1.77-2.76,1.77-4.64c0.03-1.74-0.55-3.28-1.75-4.62c-1.2-1.34-2.86-2.02-4.98-2.02h-10.37v13.11h10.19
		C387.88,454.47,389.59,453.87,390.77,452.66"/>
	<polygon class="st0" points="415.17,437.87 437.25,437.87 437.25,441.46 419.03,441.46 419.03,451.29 436.49,451.29 436.49,454.92 
		419.03,454.92 419.03,465.56 437.97,465.56 437.97,469.28 415.17,469.28 	"/>
	<path class="st0" d="M471.83,441.75c-1.62-0.67-3.35-1.03-5.21-1.06c-2.24,0-4.18,0.46-5.81,1.37c-1.63,0.91-2.45,2.25-2.45,4.02
		c0,0.81,0.21,1.51,0.63,2.11c0.42,0.6,1.06,1.09,1.93,1.48c0.87,0.39,1.74,0.69,2.63,0.92c0.88,0.22,2,0.44,3.34,0.65
		c1.56,0.24,2.81,0.46,3.77,0.67c0.96,0.21,2.06,0.55,3.3,1.01c1.24,0.46,2.21,1,2.9,1.59c0.69,0.6,1.28,1.41,1.77,2.45
		c0.49,1.03,0.74,2.24,0.74,3.61c0,1.68-0.38,3.14-1.15,4.4c-0.76,1.26-1.78,2.23-3.05,2.92c-1.27,0.69-2.63,1.2-4.06,1.53
		c-1.44,0.33-2.95,0.49-4.53,0.49c-2.99,0-5.67-0.59-8.03-1.77c-2.36-1.18-4.11-3.01-5.25-5.5l3.23-1.89
		c0.96,1.77,2.37,3.13,4.24,4.08c1.87,0.96,3.82,1.44,5.86,1.44c1.05,0,2.06-0.09,3.03-0.27c0.97-0.18,1.91-0.48,2.83-0.9
		c0.91-0.42,1.65-1.02,2.2-1.82c0.55-0.79,0.83-1.74,0.83-2.85c0-0.93-0.23-1.74-0.7-2.42c-0.46-0.69-1.16-1.24-2.09-1.66
		c-0.93-0.42-1.86-0.75-2.8-0.99c-0.94-0.24-2.1-0.46-3.48-0.67c-1.43-0.21-2.64-0.43-3.61-0.65c-0.97-0.23-2.03-0.55-3.16-0.99
		c-1.14-0.43-2.05-0.94-2.74-1.53c-0.69-0.58-1.26-1.35-1.73-2.29s-0.7-2.03-0.7-3.25c-0.03-1.56,0.32-2.92,1.05-4.11
		c0.73-1.18,1.71-2.1,2.92-2.76c1.21-0.66,2.5-1.14,3.86-1.46c1.36-0.31,2.76-0.47,4.2-0.47c2.69,0,5.03,0.4,7,1.21
		c1.97,0.81,3.6,2.3,4.89,4.49l-2.96,1.84C474.65,443.42,473.44,442.42,471.83,441.75"/>
	<path class="st0" d="M513.31,441.75c-1.62-0.67-3.35-1.03-5.21-1.06c-2.25,0-4.18,0.46-5.81,1.37c-1.63,0.91-2.45,2.25-2.45,4.02
		c0,0.81,0.21,1.51,0.63,2.11c0.42,0.6,1.06,1.09,1.93,1.48c0.87,0.39,1.74,0.69,2.63,0.92c0.88,0.22,2,0.44,3.34,0.65
		c1.56,0.24,2.81,0.46,3.77,0.67c0.96,0.21,2.06,0.55,3.3,1.01c1.24,0.46,2.21,1,2.89,1.59c0.69,0.6,1.28,1.41,1.77,2.45
		c0.49,1.03,0.74,2.24,0.74,3.61c0,1.68-0.38,3.14-1.14,4.4c-0.76,1.26-1.78,2.23-3.05,2.92c-1.27,0.69-2.62,1.2-4.06,1.53
		c-1.44,0.33-2.95,0.49-4.53,0.49c-2.99,0-5.67-0.59-8.04-1.77c-2.36-1.18-4.11-3.01-5.25-5.5l3.23-1.89
		c0.96,1.77,2.37,3.13,4.24,4.08c1.87,0.96,3.82,1.44,5.86,1.44c1.05,0,2.06-0.09,3.03-0.27c0.97-0.18,1.91-0.48,2.83-0.9
		c0.91-0.42,1.64-1.02,2.2-1.82c0.55-0.79,0.83-1.74,0.83-2.85c0-0.93-0.23-1.74-0.7-2.42c-0.46-0.69-1.16-1.24-2.09-1.66
		c-0.93-0.42-1.87-0.75-2.81-0.99c-0.94-0.24-2.1-0.46-3.48-0.67c-1.44-0.21-2.64-0.43-3.61-0.65c-0.97-0.23-2.03-0.55-3.16-0.99
		c-1.14-0.43-2.05-0.94-2.74-1.53c-0.69-0.58-1.27-1.35-1.73-2.29c-0.46-0.94-0.69-2.03-0.69-3.25c-0.03-1.56,0.32-2.92,1.05-4.11
		c0.73-1.18,1.71-2.1,2.92-2.76c1.21-0.66,2.5-1.14,3.86-1.46c1.36-0.31,2.76-0.47,4.2-0.47c2.69,0,5.03,0.4,7,1.21
		c1.97,0.81,3.61,2.3,4.89,4.49l-2.96,1.84C516.13,443.42,514.92,442.42,513.31,441.75"/>
</g>
</svg>
